<svg xmlns="http://www.w3.org/2000/svg" viewBox="0 0 100 100" fill="currentColor" role="img" aria-label="Orbie">
  <title>Orbie</title>
  <path fill-rule="evenodd" d="M29.000,0.000 H71.000 A29.000,29.000 0 0 1 100.000,29.000 V71.000 A29.000,29.000 0 0 1 71.000,100.000 H29.000 A29.000,29.000 0 0 1 0.000,71.000 V29.000 A29.000,29.000 0 0 1 29.000,0.000 Z M27.000,34.000 H29.000 A10.000,10.000 0 0 1 39.000,44.000 V56.000 A10.000,10.000 0 0 1 29.000,66.000 H27.000 A10.000,10.000 0 0 1 17.000,56.000 V44.000 A10.000,10.000 0 0 1 27.000,34.000 Z M71.000,34.000 H73.000 A10.000,10.000 0 0 1 83.000,44.000 V56.000 A10.000,10.000 0 0 1 73.000,66.000 H71.000 A10.000,10.000 0 0 1 61.000,56.000 V44.000 A10.000,10.000 0 0 1 71.000,34.000 Z"/>
</svg>
